# xmcd CD database file
#
# Track frame offsets:
#	150
#	16672
#	33035
#	46755
#	62930
#	75725
#	93080
#	107632
#	124985
#	140547
#	162407
#	184525
#	198707
#
# Disc length: 2951 seconds
#
# Revision: 3
# Processed by: cddbd v1.4PL0 Copyright (c) Steve Scherf et al.
# Submitted via: CDex 1.50Beta7
#
DISCID=a30b850d
DTITLE=Snooky Pryor - Too Cool To Move
DYEAR=1991
DGENRE=Blues
TTITLE0=Keyhole in Your Door
TTITLE1=Can I be Your Friend¿
TTITLE2=Bottle It Up and Go
TTITLE3=Hold Me in Your Arms
TTITLE4=Don't You Want to Know¿
TTITLE5=Cheatin' and Lyin'
TTITLE6=Walkin' with Snooky
TTITLE7=Fire, Fire
TTITLE8=Coal Black Mare
TTITLE9=Lovin' You is Killin' Me
TTITLE10=Boogie Twist
TTITLE11=My Baby Been Gone
TTITLE12=Please be Careful
EXTD=ANTCD0017\n\nSnooky Pryor:  vocals, harmonica\nDuke Robillard, Derek O'Brien, Luther Tucker:  guitar\nPinetop Perkins, Denny Freeman:  piano\nPreston Hubbard, Calvin Jones:  bass\n"George Rains, Willie Smith, Ted Harvey:  drums\n\nSubmitted 6/25/97\
EXTD=n[Jmccoy@efn.org] YEAR: 1991
EXTT0=
EXTT1=
EXTT2=
EXTT3=
EXTT4=
EXTT5=
EXTT6=
EXTT7=
EXTT8=
EXTT9=
EXTT10=
EXTT11=
EXTT12=
PLAYORDER=
